<?xml version="1.0" encoding="UTF-8" standalone="no"?>
<!-- Created with Inkscape (http://www.inkscape.org/) -->

<svg
   width="180"
   height="180"
   viewBox="0 0 47.624999 47.625"
   version="1.1"
   id="svg223"
   inkscape:version="1.2.1 (8a69933317, 2022-10-28, custom)"
   sodipodi:docname="head.svg"
   xmlns:inkscape="http://www.inkscape.org/namespaces/inkscape"
   xmlns:sodipodi="http://sodipodi.sourceforge.net/DTD/sodipodi-0.dtd"
   xmlns="http://www.w3.org/2000/svg"
   xmlns:svg="http://www.w3.org/2000/svg">
  <sodipodi:namedview
     id="namedview225"
     pagecolor="#505050"
     bordercolor="#eeeeee"
     borderopacity="1"
     inkscape:showpageshadow="0"
     inkscape:pageopacity="0"
     inkscape:pagecheckerboard="0"
     inkscape:deskcolor="#505050"
     inkscape:document-units="mm"
     showgrid="false"
     inkscape:zoom="2.3504797"
     inkscape:cx="-12.337907"
     inkscape:cy="103.59587"
     inkscape:window-width="1848"
     inkscape:window-height="1136"
     inkscape:window-x="72"
     inkscape:window-y="27"
     inkscape:window-maximized="1"
     inkscape:current-layer="layer2" />
  <defs
     id="defs220" />
  <g
     inkscape:groupmode="layer"
     id="layer3"
     inkscape:label="Ebene 3"
     sodipodi:insensitive="true"
     style="display:none">
    <rect
       style="display:inline;fill:#ffffff;stroke:#ffffff;stroke-width:0.104775;stroke-miterlimit:0;paint-order:markers fill stroke"
       id="rect1010-3"
       width="47.520226"
       height="47.520226"
       x="0.052387498"
       y="0.052387498" />
  </g>
  <g
     inkscape:groupmode="layer"
     id="layer2"
     inkscape:label="Ebene 2"
     style="display:inline"
     transform="rotate(180,24.116267,24.546153)">
    <g
       id="g4327"
       transform="matrix(0.98316946,0,0,0.98316946,0.98335877,-3.7529235)">
      <path
         style="fill:#ffffff;stroke:#000000;stroke-width:0.264583px;stroke-linecap:butt;stroke-linejoin:miter;stroke-dasharray:none;stroke-opacity:1"
         d="m 19.530759,36.762197 c 0,0 -5.676356,-9.482049 -6.948013,-10.863837 C 10.412331,23.539977 2.3880801,23.754873 4.5462527,25.280365 14.280985,32.161304 15.702826,37.757729 19.530759,36.762197 Z"
         id="path4201"
         sodipodi:nodetypes="cssc" />
      <path
         style="fill:#ffffff;stroke:#000000;stroke-width:0.264583px;stroke-linecap:butt;stroke-linejoin:miter;stroke-dasharray:none;stroke-opacity:1"
         d="m 27.527067,36.106016 c 0,0 5.676356,-9.482049 6.948013,-10.863837 2.170415,-2.358383 10.194666,-2.143487 8.036493,-0.617995 C 32.776841,31.505123 31.355,37.101548 27.527067,36.106016 Z"
         id="path4201-6"
         sodipodi:nodetypes="cssc" />
      <path
         style="fill:#ffffff;stroke:#000000;stroke-width:0.264583px;stroke-linecap:butt;stroke-linejoin:miter;stroke-opacity:1"
         d="M 18.230698,35.210766 C 16.428455,33.235765 5.8321669,13.100399 22.85799,13.096605 c 17.025825,-0.0038 6.694747,21.880372 6.694747,21.880372 z"
         id="path2879"
         sodipodi:nodetypes="cccc" />
      <g
         id="g2887"
         style="stroke-width:1.32292;stroke-dasharray:none">
        <path
           style="fill:none;stroke:#000000;stroke-width:0.79375;stroke-linecap:round;stroke-linejoin:miter;stroke-dasharray:none;stroke-opacity:1"
           d="m 22.470123,13.645958 0.0037,2.49731 c 0,0 -0.09754,1.948565 -2.026461,1.973638"
           id="path2881"
           sodipodi:nodetypes="ccc" />
        <path
           style="fill:none;stroke:#000000;stroke-width:0.79375;stroke-linecap:round;stroke-linejoin:miter;stroke-dasharray:none;stroke-opacity:1"
           d="m 22.475319,16.162793 c 0,0 0.178452,1.998751 2.135126,1.910568"
           id="path2883"
           sodipodi:nodetypes="cc" />
        <g
           id="g3257">
          <ellipse
             style="fill:#000000;stroke:#ffffff;stroke-width:0.79375;stroke-linecap:round;stroke-miterlimit:0;stroke-dasharray:none;paint-order:markers fill stroke"
             id="path3226"
             cx="20.099682"
             cy="29.052589"
             rx="2.6231155"
             ry="2.3421855" />
          <ellipse
             style="fill:#000000;stroke:#ffffff;stroke-width:0.79375;stroke-linecap:round;stroke-miterlimit:0;stroke-dasharray:none;paint-order:markers fill stroke"
             id="path3226-5"
             cx="27.188475"
             cy="29.052589"
             rx="2.6231155"
             ry="2.3421855" />
          <ellipse
             style="fill:#ffffff;stroke:#000000;stroke-width:0.262032;stroke-linecap:round;stroke-miterlimit:0;stroke-dasharray:none;paint-order:markers fill stroke"
             id="path4282"
             cx="19.343424"
             cy="28.71146"
             rx="0.74856573"
             ry="0.74809164" />
          <ellipse
             style="fill:#ffffff;stroke:#000000;stroke-width:0.23743;stroke-linecap:round;stroke-miterlimit:0;stroke-dasharray:none;paint-order:markers fill stroke"
             id="path4284"
             cx="27.537111"
             cy="29.850182"
             rx="0.77551448"
             ry="0.59355152" />
        </g>
        <path
           id="path3311"
           style="fill:#ffffff;stroke:#000000;stroke-width:0.264583;stroke-linecap:round;stroke-miterlimit:0;stroke-dasharray:none;paint-order:markers fill stroke"
           d="m 24.438577,31.989022 a 1.8341768,1.5743142 0 0 0 -1.833996,1.574581 1.8341768,1.5743142 0 0 0 0.0155,0.19792 1.5079052,1.3896921 0 0 0 -0.403076,-0.05064 1.5079052,1.3896921 0 0 0 -1.09399,0.434083 1.7724266,1.6731271 0 0 0 -1.616956,-0.988571 1.7724266,1.6731271 0 0 0 -1.651579,1.066602 1.5331061,1.5975846 0 0 0 -1.196309,-0.59893 1.5331061,1.5975846 0 0 0 -1.53324,1.597835 1.5331061,1.5975846 0 0 0 0.868681,1.439189 1.4844667,1.5788488 0 0 0 -0.208773,0.573608 2.6264873,2.4646466 0 0 0 -0.245463,-0.01137 2.6264873,2.4646466 0 0 0 -2.626196,2.464449 2.6264873,2.4646466 0 0 0 2.626196,2.464965 2.6264873,2.4646466 0 0 0 1.365291,-0.360701 0.86430085,0.8526718 0 0 0 0.564824,0.208256 0.86430085,0.8526718 0 0 0 0.378788,-0.0863 1.3541563,1.3450539 0 0 0 -0.0021,0.04703 1.3541563,1.3450539 0 0 0 1.354439,1.345137 1.3541563,1.3450539 0 0 0 1.353923,-1.345137 1.3541563,1.3450539 0 0 0 -5.17e-4,-0.03566 1.3455975,1.868742 0 0 0 0.515731,0.144177 1.3455975,1.868742 0 0 0 0.875399,-0.450618 1.2953863,1.3002112 0 0 0 1.279508,1.097091 1.2953863,1.3002112 0 0 0 1.295011,-1.300179 1.2953863,1.3002112 0 0 0 0,-0.01912 h 0.176734 a 1.483869,1.441607 0 0 0 0.629419,0.136943 1.483869,1.441607 0 0 0 0.618567,-0.136943 h 0.102319 a 2.4430218,2.3059843 0 0 0 -0.143144,0.767395 2.4430218,2.3059843 0 0 0 2.442745,2.306319 2.4430218,2.3059843 0 0 0 2.443262,-2.306319 2.4430218,2.3059843 0 0 0 -0.131258,-0.745691 1.8507638,2.079107 0 0 0 1.454175,-2.030367 1.8507638,2.079107 0 0 0 -0.149345,-0.818038 1.7336327,1.4133514 0 0 0 1.621606,-1.410249 1.7336327,1.4133514 0 0 0 -1.733744,-1.413351 1.7336327,1.4133514 0 0 0 -0.366386,0.03152 1.5190886,1.6097823 0 0 0 0.08888,-0.538985 1.5190886,1.6097823 0 0 0 -1.519287,-1.609721 1.5190886,1.6097823 0 0 0 -1.092956,0.492993 1.7084198,1.6396121 0 0 0 -1.597835,-1.059884 1.7084198,1.6396121 0 0 0 -1.095541,0.382923 1.8341768,1.5743142 0 0 0 -1.829346,-1.456242 z" />
      </g>
    </g>
  </g>
</svg>
