<?xml version="1.0" encoding="UTF-8" standalone="no"?>
<!-- Created with Inkscape (http://www.inkscape.org/) -->

<svg
   width="1000"
   height="130"
   viewBox="0 0 1000 130"
   version="1.1"
   id="svg5"
   inkscape:version="1.2.1 (8a69933317, 2022-10-28, custom)"
   sodipodi:docname="sheep-o-matic"
   xmlns:inkscape="http://www.inkscape.org/namespaces/inkscape"
   xmlns:sodipodi="http://sodipodi.sourceforge.net/DTD/sodipodi-0.dtd"
   xmlns="http://www.w3.org/2000/svg"
   xmlns:svg="http://www.w3.org/2000/svg">
  <sodipodi:namedview
     id="namedview7"
     pagecolor="#505050"
     bordercolor="#eeeeee"
     borderopacity="1"
     inkscape:showpageshadow="0"
     inkscape:pageopacity="0"
     inkscape:pagecheckerboard="0"
     inkscape:deskcolor="#505050"
     inkscape:document-units="px"
     showgrid="false"
     inkscape:zoom="0.5"
     inkscape:cx="397"
     inkscape:cy="-177"
     inkscape:window-width="1848"
     inkscape:window-height="1136"
     inkscape:window-x="72"
     inkscape:window-y="27"
     inkscape:window-maximized="1"
     inkscape:current-layer="text111">
    <inkscape:grid
       type="xygrid"
       id="grid302"
       originx="0"
       originy="0" />
  </sodipodi:namedview>
  <defs
     id="defs2">
    <rect
       x="46.38868"
       y="53.456833"
       width="1027.2196"
       height="303.03391"
       id="rect113" />
  </defs>
  <g
     inkscape:label="Ebene 1"
     inkscape:groupmode="layer"
     id="layer1">
    <g
       aria-label="Sheep-O-Matic"
       transform="matrix(1.4913201,0,0,1.6931217,-71.067807,-116.69974)"
       id="text111"
       style="font-size:96px;line-height:1.25;white-space:pre;shape-inside:url(#rect113)">
      <path
         d="m 144.31962,137.34089 -18.91275,0.90781 -0.15131,-15.96236 h -8.69986 l -0.52956,16.56757 H 99.080313 l 1.437367,-53.182653 18.00494,0.832161 -1.13476,27.158712 h 8.39726 l 0.0756,-28.444779 17.24843,0.453906 z"
         style="font-family:'Luckiest Guy';-inkscape-font-specification:'Luckiest Guy';fill:#ffffff;stroke:#000000;stroke-width:1.87337;stroke-dasharray:none"
         id="path277" />
      <path
         d="m 189.06203,108.09279 q 0,3.29082 -0.45391,6.58163 -6.46816,0.41609 -12.86067,1.36172 -6.39251,0.90781 -12.78502,1.81563 0.98346,2.72343 3.06387,4.34993 2.11823,1.6265 5.03079,1.6265 1.51302,0 3.29082,-0.56738 1.81562,-0.56739 3.59342,-1.39955 1.7778,-0.86998 3.40429,-1.85345 1.6265,-0.98346 2.79909,-1.7778 l -1.81562,17.17278 q -1.47519,1.13476 -3.21517,1.9291 -1.70215,0.79434 -3.55559,1.28607 -1.85346,0.49173 -3.74473,0.71868 -1.89128,0.22695 -3.7069,0.22695 -3.74472,0 -6.84641,-1.02128 -3.1017,-1.02129 -5.63601,-2.83692 -2.49648,-1.85344 -4.38776,-4.34993 -1.89127,-2.49648 -3.13951,-5.44687 -1.24825,-2.95039 -1.89127,-6.24121 -0.64304,-3.29081 -0.64304,-6.65729 0,-3.51777 0.64304,-7.03554 0.64302,-3.51777 1.92909,-6.770771 1.3239,-3.252993 3.29082,-6.014255 2.00475,-2.799087 4.65254,-4.879489 2.64778,-2.080403 5.97643,-3.252994 3.36647,-1.17259 7.4138,-1.17259 3.36647,0 6.12773,0.945637 2.79908,0.907812 4.95514,2.572135 2.19388,1.626496 3.78255,3.896026 1.62649,2.26953 2.64779,4.992967 1.05911,2.68561 1.55084,5.711654 0.52956,2.98822 0.52956,6.08991 z m -15.13021,-1.96693 q 0,-1.05911 -0.22695,-2.15605 -0.22695,-1.13477 -0.75651,-2.04258 -0.49173,-0.90781 -1.32389,-1.47519 -0.83216,-0.605215 -2.0804,-0.605215 -1.51302,0 -2.68561,0.832165 -1.13477,0.79433 -1.96693,2.04258 -0.83216,1.21041 -1.36171,2.64778 -0.52956,1.43737 -0.79434,2.64779 l 11.19634,-1.05912 z"
         style="font-family:'Luckiest Guy';-inkscape-font-specification:'Luckiest Guy';fill:#ffffff;stroke:#000000;stroke-width:1.87337;stroke-dasharray:none"
         id="path279" />
      <path
         d="m 234.79822,108.29091 q 0,3.29082 -0.45391,6.58163 -6.46816,0.41609 -12.86067,1.36172 -6.39251,0.90781 -12.78502,1.81563 0.98346,2.72343 3.06386,4.34993 2.11823,1.6265 5.0308,1.6265 1.51302,0 3.29081,-0.56738 1.81563,-0.56739 3.59343,-1.39955 1.77779,-0.86998 3.40429,-1.85345 1.6265,-0.98346 2.79909,-1.7778 l -1.81562,17.17278 q -1.4752,1.13476 -3.21517,1.9291 -1.70215,0.79434 -3.5556,1.28607 -1.85345,0.49173 -3.74472,0.71868 -1.89128,0.22695 -3.7069,0.22695 -3.74473,0 -6.84642,-1.02128 -3.10169,-1.02129 -5.636,-2.83692 -2.49648,-1.85344 -4.38775,-4.34993 -1.89128,-2.49648 -3.13953,-5.44687 -1.24823,-2.95039 -1.89127,-6.24121 -0.64303,-3.29081 -0.64303,-6.65729 0,-3.51777 0.64303,-7.03554 0.64304,-3.51777 1.9291,-6.770766 1.32389,-3.252993 3.29082,-6.014255 2.00475,-2.799087 4.65254,-4.879489 2.64778,-2.080403 5.97643,-3.252994 3.36646,-1.17259 7.4138,-1.17259 3.36646,0 6.12773,0.945637 2.79909,0.907812 4.95514,2.572135 2.19387,1.626496 3.78255,3.896026 1.6265,2.26953 2.64778,4.992967 1.05911,2.68561 1.55085,5.711649 0.52956,2.98822 0.52956,6.08991 z m -15.1302,-1.96693 q 0,-1.05911 -0.22696,-2.15605 -0.22695,-1.13477 -0.75651,-2.04258 -0.49173,-0.90781 -1.32389,-1.47519 -0.83216,-0.60521 -2.0804,-0.60521 -1.51302,0 -2.68562,0.83216 -1.13476,0.79433 -1.96692,2.04258 -0.83216,1.21041 -1.36172,2.64778 -0.52956,1.43737 -0.79433,2.64779 l 11.19635,-1.05912 z"
         style="font-family:'Luckiest Guy';-inkscape-font-specification:'Luckiest Guy';fill:#ffffff;stroke:#000000;stroke-width:1.87337;stroke-dasharray:none"
         id="path281" />
      <path
         d="m 281.32358,103.9788 q 0,3.66907 -1.09694,6.50599 -1.09693,2.83691 -3.02604,4.99296 -1.89127,2.11823 -4.46341,3.59343 -2.57213,1.43737 -5.52252,2.383 -2.91256,0.90781 -6.05208,1.36172 -3.13951,0.41608 -6.16555,0.45391 v 16.11366 h -17.62669 q 0,-4.31211 0,-8.39726 0.0378,-4.08516 0.0378,-8.09466 0.0378,-4.04732 0.0378,-8.13248 0.0378,-4.08515 0.0756,-8.43509 0.0756,-4.61471 0.0379,-9.229421 -0.0379,-4.614712 0.18913,-9.305074 4.84166,-1.437369 9.68333,-2.156054 4.84166,-0.718684 9.98593,-0.718684 2.91256,0 5.82513,0.491731 2.91256,0.453906 5.56034,1.475195 2.68562,1.021289 4.95515,2.572134 2.30735,1.51302 3.97167,3.631248 1.66432,2.118228 2.60997,4.841665 0.98346,2.72344 0.98346,6.05208 z m -16.79452,1.28607 q 0,-2.45866 -1.51302,-3.82038 -1.4752,-1.39954 -3.8582,-1.39954 -0.79434,0 -1.66432,0.1513 -0.83216,0.11348 -1.58867,0.3026 l -0.45391,11.04505 q 0.52956,0.0756 1.02129,0.0756 0.49173,0 1.02129,0 1.36172,0 2.60995,-0.45391 1.28607,-0.4539 2.26953,-1.28606 0.98347,-0.86999 1.55085,-2.00475 0.60521,-1.17259 0.60521,-2.60996 z"
         style="font-family:'Luckiest Guy';-inkscape-font-specification:'Luckiest Guy';fill:#ffffff;stroke:#000000;stroke-width:1.87337;stroke-dasharray:none"
         id="path283" />
      <path
         d="m 301.84804,118.42578 -0.1875,-14.0625 30.28125,-1.40625 0.1875,16.03125 z"
         style="font-family:'Luckiest Guy';-inkscape-font-specification:'Luckiest Guy';fill:#ffffff;stroke:#000000;stroke-width:2.32156;stroke-dasharray:none"
         id="path285" />
      <path
         d="m 430.53711,106.6662 q 0,4.91075 -1.22337,9.49767 -1.22335,4.53299 -3.55355,8.52633 -2.27194,3.99334 -5.59245,7.33911 -3.26227,3.2918 -7.39838,5.66623 -4.07784,2.37442 -8.91298,3.72351 -4.83515,1.29514 -10.25285,1.29514 -5.24292,0 -10.01983,-1.24117 -4.71866,-1.24119 -8.85473,-3.45369 -4.13611,-2.26651 -7.51489,-5.39641 -3.3205,-3.18389 -5.70897,-7.01533 -2.3302,-3.88542 -3.67006,-8.31046 -1.2816,-4.42506 -1.2816,-9.22786 0,-4.69488 1.22335,-9.173899 1.22335,-4.532981 3.49529,-8.526321 2.33018,-3.993341 5.59246,-7.339114 3.26227,-3.345771 7.28188,-5.774153 4.07783,-2.428382 8.79646,-3.777484 4.71865,-1.349103 9.96159,-1.349103 8.44693,0 15.37927,2.428384 6.99058,2.428382 11.88399,6.961363 4.95165,4.479017 7.63137,10.90074 2.738,6.36776 2.738,14.246517 z m -25.86517,1.40307 q 0,-2.32046 -0.75731,-4.47901 -0.69905,-2.21254 -2.09717,-3.885428 -1.39813,-1.726851 -3.4953,-2.752167 -2.03892,-1.079282 -4.71863,-1.079282 -2.73799,0 -4.8934,0.917389 -2.15544,0.917388 -3.72831,2.536309 -1.51463,1.564969 -2.3302,3.723529 -0.81556,2.10459 -0.81556,4.47901 0,2.2665 0.69906,4.53298 0.69906,2.2665 2.09716,4.10127 1.39812,1.83479 3.43703,2.96803 2.09717,1.13325 4.83517,1.13325 2.73797,0 4.8934,-0.97137 2.21368,-1.0253 3.72831,-2.6982 1.51462,-1.72684 2.33019,-3.93937 0.81556,-2.21253 0.81556,-4.58694 z"
         style="font-family:'Luckiest Guy';-inkscape-font-specification:'Luckiest Guy';fill:#ffffff;stroke:#000000;stroke-width:2.77688;stroke-dasharray:none"
         id="path287" />
      <path
         d="m 453.41368,118.42578 -0.1875,-14.0625 30.28125,-1.40625 0.1875,16.03125 z"
         style="font-family:'Luckiest Guy';-inkscape-font-specification:'Luckiest Guy';fill:#ffffff;stroke:#000000;stroke-width:2.32156;stroke-dasharray:none"
         id="path289" />
      <path
         d="m 579.12435,72.999256 -4.3125,68.812494 -21.375,0.9375 0.1875,-36.28125 -9.65625,29.25 h -8.25 l -7.40625,-26.15625 -0.0937,30.375 -21.65625,0.65625 0.9375,-64.781244 24.09375,-0.9375 9.5625,31.031244 12.75,-32.906244 z"
         style="font-family:'Luckiest Guy';-inkscape-font-specification:'Luckiest Guy';fill:#ffffff;stroke:#000000;stroke-width:2.32156;stroke-dasharray:none"
         id="path291" />
      <path
         d="m 619.12482,135.15957 -18.76145,2.42083 -2.26953,-8.54856 h -8.62421 l -1.89128,8.54856 -19.291,-1.89127 15.05455,-50.383569 21.03098,-1.059114 z m -22.39269,-17.70234 -2.87474,-13.16327 -2.79909,13.16327 z"
         style="font-family:'Luckiest Guy';-inkscape-font-specification:'Luckiest Guy';fill:#ffffff;stroke:#000000;stroke-width:1.87337;stroke-dasharray:none"
         id="path293" />
      <path
         d="m 654.62381,85.519955 -0.37825,16.038015 -11.272,0.4539 -1.36172,35.10207 -15.96236,0.83216 -1.43737,-35.10207 -11.272,0.60521 0.45391,-17.853634 z"
         style="font-family:'Luckiest Guy';-inkscape-font-specification:'Luckiest Guy';fill:#ffffff;stroke:#000000;stroke-width:1.87337;stroke-dasharray:none"
         id="path295" />
      <path
         d="M 676.52478,85.595606 673.877,137.11394 657.91464,137.9461 656.40162,86.65472 Z"
         style="font-family:'Luckiest Guy';-inkscape-font-specification:'Luckiest Guy';fill:#ffffff;stroke:#000000;stroke-width:1.87337;stroke-dasharray:none"
         id="path297" />
      <path
         d="m 715.67417,87.184277 -1.36171,15.962363 q -1.09694,-0.30261 -2.15605,-0.41608 -1.05912,-0.11348 -2.15606,-0.11348 -2.68561,0 -5.14427,0.68086 -2.42083,0.68086 -4.31211,2.0804 -1.85344,1.39955 -2.98821,3.5556 -1.09694,2.11823 -1.09694,5.03079 0,2.11823 0.60521,3.7069 0.64304,1.55085 1.7778,2.60996 1.17259,1.02129 2.79909,1.55085 1.66432,0.52955 3.66907,0.52955 1.39954,0 2.87474,-0.26477 1.47519,-0.30261 2.95038,-0.79434 1.4752,-0.49173 2.83692,-1.13477 1.36172,-0.64303 2.53431,-1.36171 l -0.60521,17.77798 q -1.47519,0.75651 -3.17734,1.36172 -1.70215,0.56739 -3.51777,0.98346 -1.7778,0.45391 -3.59343,0.68086 -1.77779,0.22696 -3.40429,0.22696 -5.37123,0 -9.79681,-2.00475 -4.38775,-2.00476 -7.5651,-5.44687 -3.13952,-3.47995 -4.87949,-8.05684 -1.73997,-4.57688 -1.73997,-9.75898 0,-6.20338 1.73997,-11.5746 1.7778,-5.371224 5.1821,-9.305077 3.44212,-3.971677 8.47291,-6.203382 5.06862,-2.26953 11.61243,-2.26953 2.60996,0 5.29557,0.41608 2.68561,0.416081 5.14426,1.550846 z"
         style="font-family:'Luckiest Guy';-inkscape-font-specification:'Luckiest Guy';fill:#ffffff;stroke:#000000;stroke-width:1.87337;stroke-dasharray:none"
         id="path299" />
      <path
         d="m 103.4468,117.44988 q 0,6.42188 -2.25,11.25 -2.203121,4.78125 -6.093751,7.96875 -3.84375,3.1875 -9.046873,4.78125 -5.15625,1.59375 -11.109375,1.59375 -2.296875,0 -5.0625,-0.60937 -2.71875,-0.60938 -5.53125,-1.5 -2.8125,-0.9375 -5.4375,-1.96875 -2.578125,-1.07813 -4.59375,-2.01563 l 2.0625,-19.3125 q 3.984375,2.39063 8.8125,3.65625 4.875,1.21875 9.5625,1.21875 0.890625,0 2.15625,-0.0469 1.265625,-0.0937 2.390625,-0.42188 1.171875,-0.375 1.96875,-1.07812 0.796875,-0.70313 0.796875,-2.01563 0,-0.89062 -0.5625,-1.5 -0.5625,-0.65625 -1.453125,-1.03125 -0.890625,-0.42187 -2.015625,-0.60937 -1.125,-0.23438 -2.203125,-0.32813 -1.078125,-0.0937 -2.015625,-0.0937 -0.9375,0 -1.5,0 -4.03125,0 -7.359375,-1.40625 -3.28125,-1.40625 -5.671875,-3.89062 -2.34375,-2.53125 -3.65625,-5.95313 -1.3125,-3.46874 -1.3125,-7.499993 0,-5.53125 2.203125,-9.890625 2.25,-4.40625 5.953125,-7.453125 3.75,-3.09375 8.578125,-4.734375 4.828125,-1.640625 9.984375,-1.640625 2.296875,0 4.734375,0.1875 2.4375,0.140625 4.828123,0.5625 2.4375,0.421875 4.73438,1.078125 2.29687,0.65625 4.35937,1.640625 l -1.78125,19.03125 q -3.1875,-1.078125 -6.70312,-1.78125 -3.468753,-0.75 -6.796878,-0.75 -0.609375,0 -1.59375,0.04687 -0.9375,0 -2.015625,0.140625 -1.03125,0.09375 -2.109375,0.328125 -1.078125,0.234375 -1.921875,0.65625 -0.84375,0.375 -1.359375,1.03125 -0.515625,0.65625 -0.46875,1.546875 0.04687,1.03125 0.75,1.6875 0.75,0.609375 1.875,0.984375 1.171875,0.328125 2.53125,0.46875 1.40625,0.140625 2.765625,0.1875 1.359375,0 2.53125,0 1.171875,-0.04687 1.921875,0.04687 3.749998,0.23437 6.749998,1.59375 3,1.35937 5.0625,3.60937 2.109381,2.25 3.187501,5.39062 1.125,3.09375 1.125,6.84375 z"
         style="font-family:'Luckiest Guy';-inkscape-font-specification:'Luckiest Guy';fill:#ffffff;stroke:#000000;stroke-width:2.32156;stroke-dasharray:none"
         id="path275" />
    </g>
  </g>
</svg>
