<?xml version="1.0" encoding="UTF-8" standalone="no"?>
<!-- Generator: Adobe Illustrator 24.0.0, SVG Export Plug-In . SVG Version: 6.00 Build 0)  -->

<svg
   version="1.1"
   id="Layer_1"
   x="0px"
   y="0px"
   xml:space="preserve"
   sodipodi:docname="sheep.svg"
   width="200"
   height="180"
   inkscape:version="1.2.2 (b0a8486541, 2022-12-01, custom)"
   xmlns:inkscape="http://www.inkscape.org/namespaces/inkscape"
   xmlns:sodipodi="http://sodipodi.sourceforge.net/DTD/sodipodi-0.dtd"
   xmlns="http://www.w3.org/2000/svg"
   xmlns:svg="http://www.w3.org/2000/svg"><defs
   id="defs29" /><sodipodi:namedview
   id="namedview27"
   pagecolor="#505050"
   bordercolor="#eeeeee"
   borderopacity="1"
   inkscape:showpageshadow="0"
   inkscape:pageopacity="0"
   inkscape:pagecheckerboard="0"
   inkscape:deskcolor="#505050"
   showgrid="false"
   inkscape:zoom="1.5733333"
   inkscape:cx="150"
   inkscape:cy="75.317797"
   inkscape:window-width="1848"
   inkscape:window-height="1136"
   inkscape:window-x="72"
   inkscape:window-y="27"
   inkscape:window-maximized="1"
   inkscape:current-layer="Layer_1" />
	<style
   type="text/css"
   id="style18">
	.st0{fill:#203E54;}
	.st1{fill:#EBEEF3;}
	.st2{fill:#080B0B;}
</style>
	
	
	<g
   id="g192"
   transform="matrix(0.18004795,0,0,0.18004795,-16.228786,-47.712029)"><path
     class="st0"
     d="m 647.38,519.03 c -19.84,-1.26 -39.07,0.7 -57.99,6.25 -15.19,4.46 -29.65,10.73 -43.28,18.86 -1.96,1.17 -4.29,1.71 -6.44,2.54 l -0.95,-1.27 c 1.94,-2.58 3.93,-5.12 5.81,-7.74 0.72,-1.01 1.68,-2.17 1.73,-3.29 0.39,-10.02 -3.58,-15.91 -12.9,-19.62 -7.64,-3.04 -15.26,-6.12 -24.08,-9.66 0.8,2.45 1.35,3.72 1.64,5.05 1.31,6.11 3.69,12.26 3.57,18.35 -0.24,12.4 -3.78,24.14 -10.16,34.99 -11.87,20.19 -27.48,36.05 -50.8,42 -10.64,2.72 -21.57,2.17 -30.71,-5.56 -11.44,-9.67 -13.28,-22.74 -11.61,-36.35 2.63,-21.43 13.65,-38.74 29.29,-52.99 12.88,-11.73 27.75,-19.53 45.97,-18.02 3.77,0.31 7.47,1.4 11.2,2.13 l 0.35,-0.35 c -6.13,-7.63 -7,-16.83 -7.4,-26.58 -2.3,1.07 -4.04,2 -5.87,2.7 -8.33,3.2 -16.47,7.29 -25.1,9.26 -10.65,2.43 -20.68,1.3 -26.62,-10.81 -2.94,-6 -4.07,-12.88 -6.37,-19.23 -0.59,-1.64 -2.48,-3.99 -3.79,-4 -10.12,-0.06 -20.18,-0.02 -29.81,-4.99 -0.3,19.31 -6.7,35.53 -17.79,50.39 -9.3,12.46 -20.59,22.19 -34.7,28.33 -10.33,4.49 -21.25,4.67 -32.08,1.12 -6.72,-2.2 -10.88,-7.24 -14.68,-12.87 -0.94,-1.39 -3.66,-2.91 -4.97,-2.5 -8.53,2.68 -17.09,5.42 -25.27,8.99 -14.5,6.32 -27.92,14.49 -40.09,24.77 -15.99,13.49 -32.35,26.49 -46.15,42.42 -13.69,15.8 -25.95,32.43 -33.42,52.11 -6.1,16.07 -8.7,32.64 -5.33,49.77 0.46,2.35 0.6,5.15 1.98,6.86 5.58,6.92 11.11,14.02 17.59,20.04 5.1,4.74 11.56,8.01 16.95,11.62 4.61,-10.63 8.89,-20.28 12.91,-30.02 0.47,-1.14 -0.11,-3.01 -0.76,-4.25 -1.7,-3.21 -4.11,-6.08 -5.52,-9.39 -4.33,-10.12 -5.52,-20.57 -4.01,-31.62 2.3,-16.83 8.14,-31.74 20.49,-43.72 0.85,-0.82 1.92,-1.41 2.89,-2.11 -0.86,4.17 -2.68,7.6 -4.36,11.1 -5.17,10.75 -7.58,22.14 -5.3,33.88 3.76,19.35 17.83,28.98 35.36,33.73 10.62,2.87 21.79,4.12 32.8,4.97 7,0.54 14.24,-0.51 21.22,-1.72 6.1,-1.06 12,-3.33 17.98,-5.07 -0.53,0.59 -0.97,1.41 -1.63,1.69 -10.51,4.47 -20.74,9.9 -31.64,13.05 -20.64,5.96 -41.86,6.74 -63.14,3.29 -4.92,-0.8 -8.76,0.5 -10.29,5.48 -2.94,9.64 -5.44,19.42 -8.39,29.06 -1.45,4.75 -0.68,8.44 3.47,11.31 2.87,1.98 5.55,4.28 8.54,6.03 21.77,12.69 45.82,17.28 70.49,19.03 19.23,1.37 38.04,-2.27 56.54,-7.09 41.1,-10.72 72.59,-33.59 90.83,-72.93 2.87,-6.18 5.94,-12.33 9.64,-18.03 1.64,-2.53 4.86,-5.17 7.69,-5.6 15.85,-2.36 31.18,-6.56 46.01,-12.43 25.14,-9.96 47.11,-24.11 60.29,-48.8 6.76,-12.66 14.45,-25.43 3.78,-39.98 -2.46,-3.35 -1.44,-6.02 3.02,-7.37 9.05,-2.74 17.96,-5.97 26.97,-8.85 20.49,-6.55 41.59,-10.45 62.96,-11.63 21.54,-1.19 43.24,-1.46 64.39,4.57 3.45,0.98 7.01,1.58 10.52,2.36 -4.44,-3.77 -9.2,-6.71 -14.19,-9.21 -14.87,-7.45 -30.5,-11.38 -47.28,-12.45 z M 299.19,677.32 c -0.07,0.05 -0.16,0.08 -0.25,0.11 l 0.33,-0.36 c -0.03,0.09 -0.03,0.21 -0.08,0.25 z m 83.29,383.78 c -2.47,2.6 -5.01,4.82 -7.01,7.45 -10.55,13.88 -23.57,25.22 -37.03,36.09 -15.84,12.78 -33.48,22.63 -51.53,31.93 -10.17,5.25 -18.73,12.65 -18.1,25.76 0.59,12.33 7.87,20.74 17.13,27.9 4.52,3.5 9.39,4.19 14.54,2.14 3.52,-1.4 7.07,-2.99 10.18,-5.13 17.31,-11.88 28.89,-28.61 38.35,-46.89 6.36,-12.29 14.46,-23.03 25.08,-31.89 12.27,-10.24 26.41,-17.2 40.94,-23.48 1.98,-0.86 3.8,-2.09 6.98,-3.87 -16.63,-2.31 -30.18,-7.3 -39.53,-20.01 z m 742.5,1.78 c -7.11,-8.44 -16.42,-13.35 -26.46,-17.12 -15.45,-5.81 -31.73,-7.87 -47.86,-10.85 -25.23,-4.66 -44.76,-19.28 -61.29,-38.33 -2.12,-2.45 -4.78,-4.44 -7.19,-6.64 -0.48,0.27 -0.96,0.54 -1.44,0.81 1.53,14.33 3.49,28.74 -6.82,41.14 5.89,2.37 11.25,4.56 16.63,6.69 27.81,11.01 52.86,26.43 75.34,46.21 7.43,6.54 15.4,12.6 23.71,17.96 7.71,4.98 16.06,3.5 23.57,-1.17 8.43,-5.24 13.28,-13.11 15.89,-22.7 1.74,-6.38 -0.06,-11.22 -4.08,-16 z m -839.53,-31.45 c 1.08,-0.83 2.16,-2.46 2.19,-3.75 0.19,-8.86 0.1,-17.73 0.1,-27.59 -2.38,1.43 -4.68,2.89 -7.06,4.21 -24.9,13.83 -50.79,25 -79.02,30.28 -7.33,1.37 -14.32,4.44 -19.49,10.26 -7.84,8.82 -8.52,20.27 -2.17,33 6.21,12.43 11.25,15.41 24.79,13.62 9.23,-1.23 17.22,-5.62 24.76,-10.98 15.54,-11.05 27.89,-25.49 41.59,-38.5 4.26,-4.04 9.61,-6.93 14.31,-10.55 z M 223.98,414.41 c 13.56,25.52 32.58,44.72 61.4,52.43 6.25,1.67 7.93,0.6 8.7,-6.08 -0.52,-0.3 -1.06,-0.78 -1.67,-0.92 -17.59,-3.96 -30.66,-14.51 -41.23,-28.53 -6.39,-8.48 -12.48,-17.19 -18.62,-25.85 -4.24,-5.99 -8.34,-12.09 -13.02,-18.89 39.71,-1.06 70.74,16.12 98.73,40.73 2.25,-1.87 4.26,-3.54 6.64,-5.51 -1.15,-1.78 -1.97,-3.63 -3.29,-5 -6.12,-6.32 -12.11,-12.8 -18.65,-18.66 -14.13,-12.66 -29.73,-23.11 -48.41,-27.76 -15.35,-3.82 -30.67,-3.77 -45.95,2.97 2.52,8.2 4.63,16.22 7.46,23.98 2.16,5.87 4.97,11.55 7.91,17.09 z m 736.12,706.58 c -2.31,8.69 -2.89,18.11 -7.2,25.27 -5.66,9.42 -3.48,15.65 3.27,22.24 0.82,0.8 1.33,1.92 2.13,2.74 7.16,7.32 14.98,13.28 26.11,11.25 7.51,-1.37 13.58,-5.46 18.26,-11.29 7.21,-8.98 13,-15.43 4.44,-27.64 -11.59,-16.58 -25.46,-26.87 -47.01,-22.57 z"
     id="path20" /><path
     class="st1"
     d="m 1065.97,906.2 c -2.72,-3.42 -6.12,-6.3 -9.16,-9.36 0.24,-0.39 0.29,-0.58 0.41,-0.66 1,-0.59 2,-1.17 3.02,-1.72 10.57,-5.69 18.65,-13.92 24.18,-24.5 6.95,-13.29 7.11,-26.93 -1.54,-39.2 -5.07,-7.18 -12.23,-13.02 -19,-18.81 -4.18,-3.58 -9.4,-5.95 -14.26,-8.93 4.56,-7.31 9.1,-14.26 13.31,-21.4 11.09,-18.83 10.26,-33.84 -4.89,-49.42 -9.05,-9.31 -20.06,-16.82 -30.68,-24.45 -4.24,-3.05 -7.06,-5.25 -4.84,-10.91 1.25,-3.18 1.7,-6.82 1.82,-10.28 0.24,-6.62 0.93,-13.43 -0.27,-19.84 -2.2,-11.81 -11.21,-17.97 -21.62,-22.23 -15.45,-6.32 -31.81,-8.29 -48.27,-8.82 -5.32,-0.17 -7.57,-1.99 -9.24,-6.56 -4.13,-11.27 -9.17,-22.11 -16.99,-31.42 -11.68,-13.9 -26.89,-17.7 -42.8,-8.99 -9.81,5.37 -18.43,12.92 -27.55,19.53 -1.36,0.99 -2.56,2.2 -4.73,4.08 0,-10.82 0.35,-20.3 -0.07,-29.74 -0.8,-17.95 -12.19,-26.64 -29.55,-22.36 -7.53,1.86 -14.91,4.57 -22.08,7.57 -6.68,2.79 -12.99,6.49 -19.85,9.98 -1.91,-3.18 -3.59,-6.22 -5.49,-9.11 -5.11,-7.74 -9.58,-16.06 -15.67,-22.95 -7.9,-8.92 -20.67,-8.84 -30.14,-1.04 4,3.62 7.99,7.23 12.83,11.6 -7.73,8.75 -14.95,16.95 -22.18,25.14 -9.11,6.66 -17.72,14.19 -27.42,19.82 -32.15,18.65 -65.92,22.93 -100.84,8.33 -8.96,-3.75 -17.3,-9.04 -25.75,-13.93 -4.21,-2.44 -5.07,-2.47 -6.29,1.83 -0.27,0.95 -0.44,1.94 -0.6,2.93 -4.37,26.58 -17.35,47.86 -39.25,63.62 -19.31,13.9 -41.3,21.18 -64.41,25.21 -5.94,1.04 -9.53,3.33 -12.63,8.45 -15,24.77 -33.49,46.34 -58.3,61.96 -32.8,20.64 -68.97,29.78 -107.26,31.66 -3.53,0.17 -4.85,0.99 -5.37,4.6 -1.08,7.41 0.07,14.32 3.8,20.64 3.19,5.4 7.01,10.42 10.65,15.76 -0.66,0.46 -1.55,1.18 -2.54,1.74 -12.13,6.88 -20.86,16.94 -26.95,29.3 -7.3,14.85 -2.94,24.55 12.9,29.38 1.1,0.34 2.24,0.62 3.38,0.77 7.28,0.98 14.56,1.91 22.28,2.92 -1.18,1.24 -2.02,2.25 -2.99,3.13 -9.4,8.5 -15.6,19.07 -18.78,31.18 -6.21,23.64 0.78,41.52 24.95,50.7 1.83,0.69 3.57,1.6 4.19,1.88 -2.79,8.89 -6.15,17.22 -7.98,25.88 -4.38,20.65 6.3,34.69 27.3,36.36 6.86,0.55 13.79,0.09 21.21,0.09 -5.38,15.35 -7.64,29.9 -1.51,46.39 11.44,-12.33 22.07,-23.75 32.65,-35.21 2.99,-3.24 3.65,-6.92 4.19,-11.5 1.26,-10.74 -3.16,-16.24 -11.81,-21.83 -16.94,-10.96 -28.53,-25.67 -26.75,-47.8 1.28,-15.93 11.85,-29.34 27.33,-32.9 1.41,-0.32 2.95,-0.04 3.87,-0.04 -5.22,5.84 -10.78,11.35 -15.51,17.49 -9.98,12.98 -10.14,27.2 -1,40.67 6.52,9.62 15.59,16.6 25.64,21.75 6.41,3.28 7.18,6.68 6.41,13.31 -2.07,17.78 3.45,29.19 20.98,33.77 10.5,2.75 21.45,3.79 32.21,5.6 5.08,17.02 17.39,26.7 34.81,30.18 18.02,3.6 32.06,-4.98 45.41,-15.63 -7.85,10.87 -17.23,20.12 -30.59,23.4 -24.89,6.12 -40.78,-7.91 -54.77,-26.11 -2.98,3.03 -5.62,6.31 -8.83,8.86 -9.49,7.54 -19.21,14.79 -28.85,22.16 -1.18,1.46 -3.6,3.2 -3.34,4.34 1.88,8.37 3.62,16.88 6.71,24.83 5.01,12.9 14.25,18.57 27.36,15.8 8.57,-1.81 16.55,-6.42 24.81,-9.73 1.11,-0.44 2.32,-0.63 3.48,-0.93 0.69,2.66 1.38,5.32 2.07,7.98 0.93,0.68 1.85,1.36 2.77,2.05 -0.92,-0.69 -1.84,-1.37 -2.77,-2.05 1.31,4.95 2.07,10.15 4.07,14.81 2.99,6.96 6.18,14.03 10.53,20.17 4.92,6.93 12.26,9.05 20.82,6.6 9.71,-2.78 17.69,-8.37 25.18,-14.76 5.27,-4.5 10.25,-9.33 15.41,-14.07 4.77,8.16 8.99,16.26 14.06,23.79 5.01,7.45 10.87,13.98 20.2,16.86 11.07,3.41 21.18,0.49 30.97,-3.66 9.11,-3.86 17.69,-9 26.96,-13.81 0.76,0.68 1.89,1.9 3.22,2.84 10.16,7.18 19.85,15.21 30.66,21.24 17.32,9.66 35.68,9.59 52.88,-0.27 9.69,-5.55 18.04,-13.44 27.03,-20.23 1.21,-0.91 2.61,-1.56 3.92,-2.34 0.25,0.26 0.5,0.52 0.76,0.79 6.52,6.08 12.45,13.01 19.69,18.06 12.6,8.81 24.31,7.29 34.89,-3.81 4.66,-4.88 8.51,-10.61 12.27,-16.26 2.99,-4.49 5.28,-9.44 7.69,-13.83 7.54,2.79 14.59,5.69 21.82,8.02 16.18,5.21 28.76,1.18 38.4,-12.56 3.4,-4.84 5.92,-10.34 8.5,-15.71 2.05,-4.27 3.58,-8.8 5.4,-13.36 1.61,0.57 2.82,1.1 4.09,1.43 8,2.09 15.9,4.87 24.03,6.03 12.72,1.81 20.11,-3.28 24.43,-15.4 0.89,-2.49 1.76,-5.04 2.13,-7.64 1.11,-7.64 1.98,-15.31 2.89,-22.64 7.36,0.52 14.62,1.61 21.86,1.44 20.06,-0.46 30.29,-11.04 30.01,-31.08 -0.11,-7.84 -1.47,-15.66 -2.2,-22.97 5.37,1.49 11.02,3.06 16.67,4.63 0.27,-0.8 0.54,-1.59 0.81,-2.39 -10.67,-4.73 -21.34,-9.47 -32.01,-14.2 -1.34,-0.59 -2.68,-1.19 -4.02,-1.78 -9.32,-4.09 -18.64,-7.68 -28.38,-1.07 -0.78,0.53 -1.87,0.78 -2.83,0.86 -3.57,0.3 -4.68,2.55 -4.88,5.71 -0.09,1.49 -0.38,2.96 -0.59,4.44 -1.21,3.93 -2.4,7.87 -3.62,11.8 -7.85,25.22 -26.24,38.05 -51.78,36.15 -11.5,-2.74 -19.55,-9.65 -25.38,-20.24 6.75,3.04 12.63,6.19 18.85,8.39 21.15,7.51 37.21,1.51 46.73,-18.66 4.32,-9.15 6.14,-19.52 8.72,-29.43 0.78,-2.97 1.69,-4.44 4.95,-5.02 4.37,-0.79 8.66,-2.3 12.8,-3.95 10.75,-4.27 15.94,-12.4 16.26,-23.92 0.35,-12.66 -3.34,-24.52 -7.05,-36.29 29.92,-21.54 22.49,-62.24 -14.23,-80.64 14.35,2.9 26.76,9.71 34.59,22.16 13.05,20.74 5.34,39.99 -6.21,58.22 7.82,4.24 15.68,8.49 23.53,12.75 16.34,11.2 31.74,23.88 49.77,32.43 0.5,-0.27 0.99,-0.55 1.49,-0.82 -2.97,-12.82 -5.93,-25.64 -8.95,-38.7 1.05,-0.29 2.46,-0.78 3.9,-1.05 9.48,-1.77 18.15,-5.45 25.74,-11.37 12.05,-9.39 15.46,-21.97 8.01,-35.37 -4.94,-8.85 -12.04,-16.56 -18.43,-24.58 z M 729.28,724.75 c -1.92,2.18 -3.71,4.48 -5.56,6.72 -2.51,2.89 -5.02,5.77 -7.54,8.66 -0.38,-0.33 -0.77,-0.65 -1.15,-0.98 2.15,-2.9 4.29,-5.79 6.44,-8.69 2.65,-6.31 6.02,-12.43 7.75,-18.98 1.89,-7.15 -1.02,-13.37 -7.1,-17.87 -9.55,-7.07 -20.84,-9.08 -32.14,-11.08 -1.63,-0.29 -3.25,-0.62 -4.72,-0.9 -0.5,-7.5 -0.43,-14.84 -1.57,-21.99 -2.85,-17.81 -13.6,-26.22 -31.39,-24.42 -7.02,0.71 -13.9,2.92 -20.84,4.44 -1.71,0.37 -3.42,0.72 -6.42,1.35 13.22,-12.52 27.52,-17.89 43.74,-12.32 21.63,7.43 23.89,26.31 24.39,45.57 6.62,1.77 13.33,3.03 19.63,5.4 5.21,1.96 10.49,4.53 14.75,8.03 14.27,11.73 12.84,24.44 1.73,37.06 z m 138.94,164.36 c -3.49,2.34 -5.37,4.34 -5.29,8.98 0.16,10.3 -0.29,20.64 -1.14,30.91 -1.08,13.07 -8.7,21.03 -21.01,24.96 -13.67,4.36 -27.12,3.28 -40.49,-1.16 12.19,0.13 24.32,0.64 36.14,-3.28 8.8,-2.92 15.03,-8.63 16.25,-17.78 1.45,-10.83 1.52,-21.85 2.17,-32.78 0.05,-0.83 0.11,-1.68 -0.02,-2.5 -0.95,-6.21 1.04,-10.19 7.06,-13.35 7.93,-4.17 14.28,-10.5 15.6,-20.16 1.1,-7.99 -0.98,-15.79 -5.79,-21.64 -7.03,-8.54 -6.21,-16.2 -2.37,-25.69 4.68,-11.56 5.58,-24.07 2.22,-36.29 -4.4,-16.02 -15.92,-25.58 -30.75,-31.71 -1.25,-0.52 -2.51,-0.99 -3.67,-1.71 19.6,1.03 40.61,14.37 43.82,39.13 1.74,13.44 -0.97,26.2 -5.48,38.63 -1.31,3.61 -0.59,5.9 0.9,9.09 3.48,7.44 7.54,15 8.98,22.94 2.71,14.89 -5.35,25.51 -17.13,33.41 z M 318.74,515.05 c 8.85,1.13 17.03,-2.03 24.73,-6.26 14.49,-7.94 24.88,-19.78 32.42,-34.3 6.15,-10.02 9.34,-21.03 8.62,-32.64 -0.93,-14.91 -9.32,-26.53 -27.7,-24.6 -11.15,1.17 -20.51,6.16 -28.92,13.25 -17.25,13.98 -28.44,31.69 -30.54,53.93 -1.39,14.59 4.1,28.42 21.39,30.62 z m 22.57,-55.64 c 5.64,0.12 11.32,5.79 11.28,11.24 -0.05,6.43 -5.36,11.37 -12.09,11.25 -6.16,-0.11 -10.81,-4.96 -10.78,-11.25 0.03,-5.99 5.58,-11.37 11.59,-11.24 z m 136.55,41.17 c -8.51,1.07 -16.29,4.27 -23.13,9.56 -9.2,5.7 -16.53,13.34 -22.49,22.26 -8.17,12.23 -13.74,25.41 -13.35,40.48 0.39,15 9.16,24.99 23.06,25.53 4.68,0.18 9.6,-0.9 14.11,-2.35 13.54,-4.35 23.68,-13.48 32.43,-24.35 0.77,-0.85 1.62,-1.64 2.28,-2.57 9.78,-13.73 16.62,-28.51 15.03,-45.88 -1.46,-15.94 -12.26,-24.65 -27.94,-22.68 z m -24.5,62.76 c -6.24,-0.19 -10.9,-5.42 -10.71,-12.01 0.18,-6.08 5.23,-10.96 11.25,-10.88 6.25,0.08 11.16,5.29 10.99,11.64 -0.17,6.4 -5.34,11.44 -11.53,11.25 z M 384.54,391.93 c 9.11,-1.03 18,-3.93 27,-5.91 1.54,-0.34 3.97,-2.58 4.16,1.4 -1.79,1.97 -3.58,3.94 -5.36,5.91 -7.71,8 -13.93,16.89 -16.68,27.86 -1.72,6.89 1.16,12.45 8.01,14.11 4.96,1.2 10.13,1.73 15.25,2.07 5.06,0.34 10.17,0.07 14.99,0.07 2.35,8.57 4.31,17.33 7.21,25.77 2.57,7.47 8.41,10.09 16.31,8.9 14.49,-2.17 26.92,-9.25 39.39,-16.26 1.04,-0.59 2.18,-0.99 4.16,-1.88 0,6.6 -0.11,12.25 0.02,17.89 0.27,11.83 5.53,20.7 16.16,26.1 5.02,2.55 10.11,5 15.32,7.14 17.37,7.13 35.22,11.9 54.28,10.41 13.48,-1.05 19.74,-9.28 16.47,-22.42 -1.38,-5.55 -3.43,-10.94 -5.28,-16.72 1.28,-0.34 2.53,-0.67 3.77,-1.01 14.42,-3.9 23.91,-18.19 21.01,-32.31 -1.89,-9.2 -8.32,-15.43 -15.73,-20.47 -6.38,-4.34 -13.2,-8.03 -19.83,-12.01 0.1,-0.33 0.1,-0.72 0.3,-0.93 0.81,-0.83 1.71,-1.57 2.53,-2.39 7.72,-7.78 11.38,-17.18 10.08,-28.06 -1.5,-12.54 -9.91,-19.51 -20.97,-23.68 -15.08,-5.69 -30.74,-4.74 -46.38,-3.43 -3.66,0.31 -7.3,0.95 -12.13,1.6 2.66,-3.11 5.03,-4.95 6.13,-7.37 1.74,-3.81 3.89,-8.08 3.64,-12.02 -0.73,-11.31 -4.65,-21.69 -12,-30.6 -5.46,-6.61 -17.34,-12.84 -25.58,-8.42 -0.64,0.12 -1.28,0.25 -1.92,0.37 -0.68,0.26 -1.35,0.52 -2.03,0.77 -11.97,4.47 -19.65,14.22 -28.2,23.44 -6.07,-10.47 -15.58,-14.84 -26.5,-17.02 -13.09,-2.62 -23.4,2.65 -26.52,14.66 -1.47,5.65 -1.47,11.8 -1.32,17.7 0.14,5.37 1.37,10.72 2.2,16.61 -2.3,-0.54 -4.35,-0.95 -6.35,-1.52 -9.38,-2.67 -18.64,-5.85 -28.15,-7.94 -8.94,-1.97 -15.66,2.5 -18.1,11.36 -1.13,4.11 -1.26,8.49 -1.84,12.74 0.16,2.26 -0.08,4.63 0.55,6.76 4.53,15.35 17.48,20.37 31.93,18.73 z m 183.4,131.98 c -5.98,-1.17 -10.8,-2.1 -16.34,-3.18 1.09,3.46 1.94,6.17 2.92,9.3 4.43,-2.02 8.44,-3.85 13.42,-6.12 z"
     id="path22" /><path
     class="st2"
     d="m 1205.11,1090.31 c -1.48,-11.24 -8.75,-18.47 -17.31,-24.49 -14.21,-10.01 -30.66,-13 -47.61,-14.2 -2.24,-0.16 -4.82,-0.76 -6.53,-2.08 -5.07,-3.91 -9.35,-8.96 -14.72,-12.31 -10.12,-6.31 -21.76,-8.73 -33.38,-10.81 -7.59,-1.35 -15.17,-2.69 -21.42,-3.79 -2.36,-13.43 -4.46,-25.47 -6.67,-38.02 0.73,-0.26 2.16,-0.63 3.44,-1.27 6.51,-3.26 13.46,-5.91 19.38,-10.03 13.84,-9.62 20.95,-25.35 12.72,-43.23 -3.76,-8.17 -9.53,-15.44 -14.71,-22.9 -2.21,-3.18 -5.27,-5.77 -6.89,-7.51 5.15,-5.91 10.33,-11.12 14.65,-16.97 10.45,-14.13 14.81,-29.66 8.72,-46.91 -3.59,-10.17 -10.29,-18.2 -18.53,-24.92 -4.72,-3.85 -9.81,-7.24 -14.6,-10.74 4.01,-7.1 8.3,-13.84 11.76,-21 8.33,-17.24 6.87,-34.01 -5.78,-48.35 -8.06,-9.13 -17.7,-17.04 -27.41,-24.49 -9.42,-7.23 -9.86,-6.66 -7.77,-18.33 4.7,-26.36 -5.2,-43.49 -30.4,-52.51 -14.06,-5.03 -28.7,-7.08 -43.5,-7.82 -4.21,-0.21 -5.99,-1.74 -7.55,-5.36 -3.07,-7.15 -6.16,-14.41 -10.24,-21 -8.56,-13.84 -19.9,-24.42 -37.26,-25.13 -14.16,-0.58 -26.02,5.9 -37.1,13.98 -1.38,1 -2.77,1.98 -4.55,3.25 -0.35,-4.55 -0.46,-8.22 -0.96,-11.83 -0.5,-3.6 -1.1,-7.24 -2.16,-10.71 -3.8,-12.42 -12.8,-19.87 -25.76,-19.46 -8.32,0.26 -16.8,2.17 -24.79,4.69 -8.17,2.57 -15.84,6.77 -24.02,10.4 -2.75,-4.89 -5.4,-10.05 -8.45,-14.94 -12.98,-20.82 -29.66,-25.95 -49.29,-14.96 -3.14,1.76 -5.12,1.58 -7.92,-0.38 -27.58,-19.32 -58.27,-27.74 -91.84,-25.75 -6.35,0.38 -12.67,1.13 -19.62,1.77 5.47,-10.5 3.02,-20.46 -0.33,-30.3 2.33,-1.41 4.34,-2.58 6.29,-3.82 11.99,-7.61 18.79,-22.96 15.8,-36.68 -2.36,-10.81 -9.52,-18.47 -18.04,-24.92 -3.93,-2.97 -8.19,-5.48 -12.32,-8.21 1.4,-2.59 2.76,-4.88 3.91,-7.27 9.1,-19.01 3.3,-39.25 -14.23,-49.4 -8.48,-4.92 -17.78,-7.51 -27.49,-8.05 -8.2,-0.45 -16.45,-0.09 -24.81,-0.09 2.13,-10.95 -0.65,-24.46 -7.13,-36.18 -12.68,-22.92 -33.93,-27.92 -55.33,-12.8 -5.1,3.6 -9.68,7.95 -14.46,11.93 -10.83,-7.67 -15.11,-9.65 -25.14,-11.69 -19.45,-3.96 -34.35,6.01 -37.23,25.55 -0.92,6.29 -0.14,12.83 -0.14,19.66 -1.78,-0.41 -3.04,-0.66 -4.28,-0.99 -6.41,-1.66 -12.72,-3.95 -19.23,-4.85 -9.27,-1.29 -17.83,1.14 -23.2,9.4 -6.38,9.82 -8.01,21.15 -4.98,32.12 5.35,19.35 22.81,26.82 43.53,24.47 1.83,-0.21 3.67,-0.38 5.74,-0.59 -3.27,7 -6.24,13.35 -9.18,19.62 -16.73,-15.88 -34.34,-11.25 -52.16,-2.57 -5.37,-5.71 -10.54,-11.57 -16.09,-17.04 -19.04,-18.72 -40.26,-33.67 -67.26,-38.63 -17.31,-3.19 -33.57,0.04 -49.34,6.85 6,40.41 31.75,97.1 89.49,108.62 0,6.19 0.18,11.97 -0.15,17.71 -0.07,1.15 -1.84,2.7 -3.17,3.22 -11.59,4.52 -23.58,8.15 -34.84,13.38 -19.83,9.21 -36.26,23.5 -52.48,37.83 -22.95,20.28 -43.62,42.54 -57.39,70.33 -12,24.22 -16.64,49.33 -8.64,75.85 6.72,22.3 20.38,39.72 38.1,54.33 1.45,1.19 3.04,2.82 3.47,4.53 2.23,8.81 7.96,14.9 15.13,19.71 11.79,7.9 25.18,11.87 39,14.15 11.96,1.97 24.05,3.19 36.39,4.78 -3.49,14.12 1.76,26.22 9.94,37.68 -1.6,1.36 -3.11,2.62 -4.59,3.92 -10.12,8.94 -18.54,19.09 -22.65,32.25 -4.59,14.73 0.75,26.59 14.94,32.46 4.95,2.05 10.28,3.16 15.88,4.82 -9.82,14.26 -15.76,29.75 -14.27,47.23 1.58,18.56 13.02,30 30.2,38.05 -3.07,0.56 -4.77,0.58 -6.2,1.2 -1.65,0.71 -3.04,2 -4.59,2.97 -24.58,15.44 -50.87,26.7 -79.34,32.75 -12.58,2.67 -24.28,7.02 -31.91,18.46 -0.61,0.92 -2.56,1.23 -3.93,1.33 -6.81,0.49 -13.65,0.56 -20.44,1.26 -14.25,1.48 -28.48,3.3 -41.29,10.45 -6.18,3.45 -11.05,8.17 -11.91,15.63 -1.74,15.02 11.6,30.84 26.67,31.78 2.42,0.15 4.85,0.02 8.02,0.02 -1.38,2.65 -2.47,4.66 -3.49,6.7 -7.65,15.42 -3.18,29.71 11.51,33.53 6.32,1.64 13.72,1.33 20.16,-0.17 18.42,-4.28 31.54,-16.57 42.53,-31.23 2.96,-3.95 5.76,-6.75 11.05,-6.94 3.39,-0.12 6.86,-1.26 10.06,-2.54 14.96,-5.98 26.18,-16.9 36.56,-28.69 7.28,-8.26 15.72,-14.81 25.47,-19.76 4.1,-2.08 8.24,-4.08 12.35,-6.12 -1.13,-3.12 -2.11,-5.84 -3.1,-8.57 10.86,11.94 25.24,13.36 39.81,14.14 -2.41,13.74 -3.16,26.87 2.03,39.77 0.42,1.06 -1.13,3.52 -2.4,4.55 -14.43,11.7 -30.42,20.84 -47.09,28.94 -9.91,4.82 -18.2,11.61 -22.47,22.39 -0.53,1.33 -2.45,2.48 -3.97,3 -8.01,2.73 -16.23,4.92 -24.15,7.89 -12.8,4.8 -25.51,9.97 -35.12,20.29 -4.75,5.1 -7.46,11.13 -5.51,18.22 4.31,15.65 19.59,24.92 35.38,21.7 1.71,-0.35 3.43,-0.65 5.26,-0.99 -0.61,3.17 -1.26,5.89 -1.62,8.65 -0.38,2.97 -0.71,5.97 -0.66,8.95 0.21,10.87 7.41,18.34 18.22,19.37 9.99,0.95 18.68,-2.41 26.64,-7.98 14.58,-10.21 23.39,-24.7 30.13,-40.77 0.79,-1.89 3.02,-3.42 4.91,-4.58 4.88,-2.97 10.43,-5.04 14.86,-8.55 12.24,-9.72 20,-22.99 27.23,-36.55 7.49,-14.06 19.21,-23.87 32.02,-32.94 2.01,7.12 3.56,13.88 5.83,20.38 7.56,21.72 23.51,29.77 45.58,23.16 4.65,-1.39 9.16,-3.25 13.01,-4.63 3.67,9.38 6.55,18.45 10.67,26.9 8.81,18.07 24.15,23.99 42.21,15.27 9.57,-4.62 17.78,-12.04 26.61,-18.2 1,-0.7 1.97,-1.44 3.08,-2.25 3.03,5.05 5.58,9.72 8.53,14.13 11.33,16.93 26.44,27.53 50.25,20.47 10.55,-3.13 20.5,-8.41 30.47,-13.25 2.74,-1.33 4.19,-1.5 6.47,0.41 4.58,3.85 9.35,7.51 14.19,11.04 28.26,20.6 56.95,21.19 85.66,1.6 5.3,-3.61 10.1,-7.95 14.69,-11.59 6.23,4.97 11.74,10.11 17.94,14.18 15.11,9.92 31.37,8.23 44.02,-4.58 4.75,-4.81 8.65,-10.5 12.69,-15.97 2.24,-3.04 3.33,-8.14 6.12,-9.21 2.72,-1.04 6.96,1.87 10.52,3.05 27.44,9.08 45.4,1.73 58.52,-24.07 2.24,-4.41 4.16,-8.98 6.08,-13.14 7.2,1.65 14.06,4.06 21.07,4.6 6.93,0.53 14,-0.82 21.68,-1.4 1.3,1.85 3.27,4.73 5.32,7.55 6.9,9.47 14.89,17.42 26.94,20.08 1.4,0.31 2.79,2.16 3.55,3.62 3.19,6.19 5.92,12.63 9.22,18.76 6.64,12.34 13.86,24.29 24.94,33.32 7.06,5.75 15.13,7.83 23.19,3.44 11.65,-6.34 22.04,-22.78 13.57,-39.21 -0.47,-0.9 -0.66,-1.95 -1.04,-3.12 5,0 9.5,0.19 13.98,-0.04 13.82,-0.71 22.12,-10.64 19.5,-25.82 -1.65,-9.58 -7.21,-17.09 -14.21,-23.44 -12.25,-11.12 -27.03,-17.23 -42.97,-20.86 -1.37,-0.31 -3.39,-0.9 -3.77,-1.89 -4,-10.13 -11.89,-16.62 -21.1,-22.74 13.43,-11.55 13.69,-26.98 12.7,-42.28 5.8,-0.38 11.05,-0.91 16.31,-0.97 2.28,-0.03 5.11,0.25 6.78,1.56 11.37,8.9 22.7,17.88 33.64,27.3 8.69,7.48 17.45,14.62 29.45,15.16 3.52,0.16 5.41,1.44 7.33,3.99 5.41,7.16 10.7,14.47 16.64,21.18 8.71,9.84 17.66,19.64 30.64,24.08 6.62,2.26 13.52,2.35 18.93,-2.4 10.33,-9.07 17.1,-26.31 6.26,-41.25 -0.72,-0.99 -1.38,-2.02 -1.93,-2.83 5.4,-1.25 10.5,-2.05 15.35,-3.62 10.59,-3.35 15.44,-11.54 14.02,-22.29 z m -917.47,-62.63 c -0.03,1.29 -1.11,2.92 -2.19,3.75 -4.7,3.62 -10.05,6.5 -14.31,10.55 -13.7,13.01 -26.05,27.45 -41.59,38.5 -7.54,5.36 -15.53,9.76 -24.76,10.98 -13.53,1.8 -18.58,-1.18 -24.79,-13.62 -6.36,-12.73 -5.67,-24.18 2.17,-33 5.18,-5.83 12.16,-8.89 19.49,-10.26 28.22,-5.28 54.11,-16.45 79.02,-30.28 2.38,-1.32 4.68,-2.79 7.06,-4.21 0,9.87 0.09,18.73 -0.1,27.59 z M 393.66,421.19 c 2.74,-10.97 8.96,-19.86 16.68,-27.86 1.79,-1.97 3.58,-3.94 5.36,-5.91 -0.19,-3.98 -2.63,-1.73 -4.16,-1.4 -9.01,1.98 -17.9,4.87 -27,5.91 -14.45,1.64 -27.4,-3.38 -31.93,-18.7 -0.63,-2.12 -0.39,-4.5 -0.55,-6.76 0.58,-4.26 0.71,-8.64 1.84,-12.74 2.44,-8.86 9.16,-13.33 18.1,-11.36 9.5,2.09 18.77,5.27 28.15,7.94 2,0.57 4.05,0.97 6.35,1.52 -0.83,-5.9 -2.06,-11.24 -2.2,-16.61 -0.15,-5.9 -0.15,-12.06 1.32,-17.7 3.12,-12.01 13.43,-17.28 26.52,-14.66 10.91,2.19 20.43,6.56 26.5,17.02 8.55,-9.21 16.23,-18.96 28.2,-23.44 0.68,-0.26 1.35,-0.52 2.03,-0.77 0.64,-0.12 1.28,-0.25 1.92,-0.37 8.24,-4.43 20.12,1.8 25.58,8.42 7.35,8.91 11.27,19.29 12,30.6 0.25,3.93 -1.9,8.21 -3.64,12.02 -1.11,2.42 -3.47,4.27 -6.13,7.37 4.84,-0.65 8.47,-1.29 12.13,-1.6 15.64,-1.31 31.3,-2.26 46.38,3.43 11.06,4.17 19.47,11.14 20.97,23.68 1.3,10.88 -2.35,20.28 -10.08,28.06 -0.82,0.82 -1.72,1.56 -2.53,2.39 -0.2,0.2 -0.2,0.6 -0.3,0.93 6.63,3.98 13.45,7.67 19.83,12.01 7.41,5.03 13.84,11.26 15.73,20.47 2.9,14.12 -6.59,28.4 -21.01,32.31 -1.24,0.34 -2.49,0.67 -3.77,1.01 1.85,5.78 3.9,11.16 5.28,16.72 3.27,13.14 -2.99,21.37 -16.47,22.42 -19.06,1.49 -36.91,-3.28 -54.28,-10.41 -5.21,-2.14 -10.3,-4.59 -15.32,-7.14 -10.63,-5.4 -15.89,-14.27 -16.16,-26.1 -0.13,-5.64 -0.02,-11.29 -0.02,-17.89 -1.98,0.89 -3.12,1.3 -4.16,1.88 -12.47,7.02 -24.9,14.09 -39.39,16.26 -7.9,1.19 -13.74,-1.43 -16.31,-8.9 -2.9,-8.44 -4.86,-17.2 -7.21,-25.77 -4.82,0 -9.92,0.27 -14.99,-0.07 -5.11,-0.34 -10.28,-0.87 -15.25,-2.07 -6.85,-1.69 -9.73,-7.25 -8.01,-14.14 z m 174.28,102.72 c -4.98,2.27 -8.98,4.1 -13.42,6.12 -0.98,-3.13 -1.83,-5.84 -2.92,-9.3 5.54,1.07 10.36,2.01 16.34,3.18 z m -77.17,45.24 c -0.66,0.93 -1.52,1.72 -2.28,2.57 -8.74,10.87 -18.88,20 -32.43,24.35 -4.51,1.45 -9.43,2.53 -14.11,2.35 -13.9,-0.53 -22.67,-10.53 -23.06,-25.53 -0.39,-15.07 5.18,-28.25 13.35,-40.48 5.96,-8.92 13.29,-16.56 22.49,-22.26 6.84,-5.29 14.62,-8.5 23.13,-9.56 15.67,-1.96 26.47,6.74 27.94,22.69 1.6,17.36 -5.25,32.14 -15.03,45.87 z M 356.81,417.25 c 18.38,-1.93 26.77,9.69 27.7,24.6 0.72,11.61 -2.47,22.62 -8.62,32.64 -7.54,14.52 -17.92,26.36 -32.42,34.3 -7.7,4.22 -15.89,7.38 -24.73,6.26 -17.29,-2.2 -22.78,-16.03 -21.39,-30.62 2.11,-22.24 13.29,-39.95 30.54,-53.93 8.42,-7.09 17.77,-12.08 28.92,-13.25 z m -71.43,49.58 c -28.82,-7.71 -47.84,-26.91 -61.4,-52.43 -2.94,-5.54 -5.75,-11.22 -7.9,-17.1 -2.83,-7.76 -4.95,-15.78 -7.46,-23.98 15.28,-6.74 30.6,-6.79 45.95,-2.97 18.67,4.65 34.27,15.1 48.41,27.76 6.54,5.86 12.53,12.35 18.65,18.66 1.32,1.36 2.14,3.21 3.29,5 -2.38,1.97 -4.39,3.64 -6.64,5.51 -27.99,-24.61 -59.02,-41.79 -98.73,-40.73 4.68,6.81 8.78,12.9 13.02,18.89 6.14,8.67 12.22,17.38 18.62,25.85 10.57,14.01 23.64,24.57 41.23,28.53 0.61,0.14 1.15,0.62 1.67,0.92 -0.78,6.69 -2.46,7.77 -8.71,6.09 z m -89.66,280.61 c -3,-1.75 -5.68,-4.04 -8.54,-6.03 -4.15,-2.87 -4.92,-6.57 -3.47,-11.31 2.95,-9.64 5.45,-19.42 8.39,-29.06 1.52,-4.98 5.36,-6.28 10.29,-5.48 21.28,3.46 42.5,2.68 63.14,-3.29 10.9,-3.15 21.13,-8.58 31.64,-13.05 0.66,-0.28 1.1,-1.1 1.63,-1.69 -5.99,1.74 -11.88,4.01 -17.98,5.07 -6.98,1.21 -14.22,2.26 -21.22,1.72 -11.01,-0.85 -22.18,-2.1 -32.8,-4.97 -17.53,-4.74 -31.59,-14.37 -35.36,-33.73 -2.28,-11.74 0.13,-23.12 5.3,-33.88 1.68,-3.5 3.5,-6.93 4.36,-11.1 -0.97,0.7 -2.04,1.29 -2.89,2.11 -12.36,11.98 -18.19,26.88 -20.49,43.72 -1.51,11.06 -0.32,21.51 4.01,31.62 1.42,3.31 3.82,6.18 5.52,9.39 0.65,1.24 1.23,3.11 0.76,4.25 -4.02,9.74 -8.29,19.39 -12.91,30.02 -5.39,-3.61 -11.85,-6.88 -16.95,-11.62 -6.48,-6.03 -12.01,-13.12 -17.59,-20.04 -1.38,-1.71 -1.52,-4.51 -1.98,-6.86 -3.37,-17.13 -0.77,-33.7 5.33,-49.77 7.47,-19.68 19.72,-36.31 33.42,-52.11 13.8,-15.92 30.16,-28.92 46.15,-42.42 12.18,-10.27 25.59,-18.44 40.09,-24.77 8.18,-3.57 16.74,-6.32 25.27,-8.99 1.31,-0.41 4.03,1.11 4.97,2.5 3.8,5.62 7.96,10.66 14.68,12.87 10.83,3.55 21.75,3.37 32.08,-1.12 14.11,-6.13 25.4,-15.87 34.7,-28.33 11.09,-14.86 17.49,-31.08 17.79,-50.39 9.62,4.97 19.69,4.93 29.81,4.99 1.31,0.01 3.2,2.36 3.79,4 2.3,6.35 3.43,13.23 6.37,19.23 5.94,12.11 15.97,13.24 26.62,10.81 8.62,-1.97 16.76,-6.06 25.1,-9.26 1.83,-0.7 3.57,-1.63 5.87,-2.7 0.4,9.75 1.28,18.95 7.4,26.58 0.12,0.24 0.24,0.48 0.36,0.71 -0.24,-0.12 -0.47,-0.25 -0.71,-0.37 -3.74,-0.72 -7.44,-1.81 -11.21,-2.12 -18.22,-1.52 -33.1,6.28 -45.97,18.02 -15.64,14.25 -26.66,31.57 -29.29,52.99 -1.67,13.61 0.17,26.68 11.61,36.35 9.14,7.73 20.07,8.27 30.71,5.56 23.32,-5.95 38.93,-21.8 50.8,-42 6.38,-10.85 9.92,-22.59 10.16,-34.99 0.12,-6.09 -2.26,-12.24 -3.57,-18.35 -0.28,-1.33 -0.83,-2.6 -1.64,-5.05 8.82,3.54 16.44,6.62 24.08,9.66 9.33,3.71 13.29,9.6 12.9,19.62 -0.04,1.12 -1,2.29 -1.73,3.29 -1.88,2.62 -3.87,5.17 -5.81,7.74 l 0.95,1.27 c 2.16,-0.83 4.49,-1.37 6.44,-2.54 13.64,-8.12 28.09,-14.4 43.28,-18.86 18.92,-5.55 38.15,-7.51 57.99,-6.25 16.78,1.07 32.41,5 47.28,12.45 4.99,2.5 9.75,5.44 14.19,9.21 -3.51,-0.78 -7.07,-1.37 -10.52,-2.36 -21.15,-6.03 -42.85,-5.76 -64.39,-4.57 -21.37,1.18 -42.47,5.08 -62.96,11.63 -9.01,2.88 -17.92,6.1 -26.97,8.85 -4.46,1.35 -5.48,4.02 -3.02,7.37 10.67,14.55 2.98,27.32 -3.78,39.98 -13.18,24.69 -35.16,38.84 -60.29,48.8 -14.83,5.88 -30.16,10.07 -46.01,12.43 -2.83,0.42 -6.05,3.07 -7.69,5.6 -3.69,5.7 -6.77,11.85 -9.64,18.03 -18.24,39.34 -49.73,62.21 -90.83,72.93 -18.5,4.83 -37.31,8.46 -56.54,7.09 -24.66,-1.76 -48.71,-6.34 -70.48,-19.03 z m 178.36,361.03 c -10.62,8.86 -18.72,19.6 -25.08,31.89 -9.46,18.28 -21.03,35.01 -38.35,46.89 -3.11,2.13 -6.66,3.73 -10.18,5.13 -5.15,2.05 -10.02,1.35 -14.54,-2.14 -9.26,-7.16 -16.54,-15.57 -17.13,-27.9 -0.63,-13.11 7.93,-20.51 18.1,-25.76 18.05,-9.31 35.69,-19.15 51.53,-31.93 13.46,-10.86 26.48,-22.2 37.03,-36.09 2,-2.63 4.54,-4.85 7.01,-7.45 9.35,12.71 22.9,17.7 39.53,20.02 -3.18,1.78 -5,3.01 -6.98,3.87 -14.53,6.27 -28.66,13.22 -40.94,23.47 z m 633.04,35.09 c 8.55,12.22 2.76,18.66 -4.44,27.64 -4.68,5.83 -10.76,9.92 -18.26,11.29 -11.14,2.04 -18.95,-3.93 -26.11,-11.25 -0.81,-0.82 -1.31,-1.94 -2.13,-2.74 -6.74,-6.6 -8.93,-12.83 -3.27,-22.24 4.31,-7.17 4.89,-16.58 7.2,-25.27 21.54,-4.3 35.41,5.99 47.01,22.57 z m 11.06,-80.78 c -5.65,-1.57 -11.3,-3.14 -16.67,-4.63 0.74,7.31 2.09,15.13 2.2,22.97 0.28,20.04 -9.94,30.61 -30.01,31.08 -7.23,0.17 -14.49,-0.92 -21.86,-1.44 -0.92,7.33 -1.78,15.01 -2.89,22.64 -0.38,2.6 -1.25,5.15 -2.13,7.64 -4.32,12.12 -11.7,17.21 -24.43,15.4 -8.13,-1.16 -16.04,-3.94 -24.03,-6.03 -1.26,-0.33 -2.47,-0.86 -4.09,-1.43 -1.82,4.56 -3.35,9.09 -5.4,13.36 -2.58,5.37 -5.1,10.86 -8.5,15.71 -9.64,13.74 -22.22,17.77 -38.4,12.56 -7.23,-2.33 -14.28,-5.23 -21.82,-8.02 -2.41,4.39 -4.7,9.34 -7.69,13.83 -3.76,5.65 -7.61,11.37 -12.27,16.26 -10.59,11.1 -22.29,12.62 -34.89,3.81 -7.24,-5.06 -13.17,-11.98 -19.69,-18.06 -0.25,-0.26 -0.5,-0.52 -0.76,-0.78 -1.31,0.77 -2.72,1.42 -3.92,2.34 -8.99,6.79 -17.34,14.68 -27.03,20.23 -17.2,9.86 -35.56,9.93 -52.88,0.27 -10.81,-6.03 -20.5,-14.06 -30.66,-21.24 -1.33,-0.94 -2.47,-2.17 -3.22,-2.84 -9.27,4.81 -17.85,9.95 -26.96,13.81 -9.79,4.15 -19.89,7.07 -30.97,3.66 -9.32,-2.87 -15.19,-9.4 -20.2,-16.86 -5.06,-7.53 -9.29,-15.63 -14.06,-23.79 -5.16,4.74 -10.14,9.57 -15.41,14.07 -7.5,6.4 -15.47,11.98 -25.18,14.76 -8.56,2.45 -15.9,0.34 -20.82,-6.6 -4.35,-6.14 -7.54,-13.21 -10.53,-20.17 -2,-4.66 -2.76,-9.85 -4.07,-14.81 -0.69,-2.66 -1.38,-5.32 -2.07,-7.98 -1.16,0.3 -2.37,0.49 -3.48,0.93 -8.26,3.31 -16.24,7.92 -24.81,9.73 -13.11,2.77 -22.35,-2.9 -27.36,-15.8 -3.09,-7.96 -4.82,-16.47 -6.71,-24.83 -0.26,-1.14 2.16,-2.88 3.34,-4.34 9.63,-7.36 19.35,-14.62 28.85,-22.16 3.21,-2.55 5.85,-5.83 8.83,-8.86 13.99,18.19 29.88,32.22 54.77,26.11 13.36,-3.28 22.74,-12.53 30.59,-23.4 -13.35,10.65 -27.39,19.23 -45.41,15.63 -17.42,-3.48 -29.73,-13.16 -34.81,-30.18 -10.76,-1.81 -21.71,-2.86 -32.21,-5.6 -17.53,-4.59 -23.06,-16 -20.98,-33.77 0.77,-6.63 0,-10.03 -6.41,-13.31 -10.05,-5.15 -19.12,-12.13 -25.64,-21.75 -9.14,-13.47 -8.98,-27.7 1,-40.67 4.72,-6.14 10.28,-11.65 15.51,-17.49 -0.91,0 -2.46,-0.28 -3.87,0.04 -15.49,3.55 -26.06,16.97 -27.33,32.9 -1.77,22.13 9.81,36.84 26.75,47.8 8.65,5.6 13.07,11.1 11.81,21.83 -0.54,4.58 -1.2,8.26 -4.19,11.5 -10.58,11.46 -21.21,22.88 -32.65,35.21 -6.13,-16.49 -3.88,-31.04 1.51,-46.39 -7.42,0 -14.35,0.46 -21.21,-0.09 -21,-1.67 -31.68,-15.71 -27.3,-36.36 1.84,-8.66 5.19,-16.99 7.98,-25.88 -0.61,-0.28 -2.36,-1.18 -4.19,-1.88 -24.17,-9.17 -31.16,-27.06 -24.95,-50.7 3.18,-12.11 9.38,-22.68 18.78,-31.18 0.97,-0.88 1.81,-1.89 2.99,-3.13 -7.72,-1.01 -15,-1.94 -22.28,-2.92 -1.14,-0.15 -2.28,-0.43 -3.38,-0.77 -15.84,-4.84 -20.2,-14.54 -12.9,-29.38 6.08,-12.36 14.82,-22.42 26.95,-29.3 0.99,-0.56 1.88,-1.29 2.54,-1.74 -3.64,-5.34 -7.47,-10.36 -10.65,-15.76 -3.73,-6.32 -4.88,-13.23 -3.8,-20.64 0.52,-3.61 1.85,-4.42 5.37,-4.6 38.29,-1.89 74.47,-11.02 107.26,-31.66 24.82,-15.62 43.31,-37.19 58.3,-61.96 3.1,-5.12 6.69,-7.41 12.63,-8.45 23.11,-4.04 45.1,-11.32 64.41,-25.21 21.9,-15.76 34.87,-37.04 39.25,-63.62 0.16,-0.98 0.33,-1.97 0.6,-2.93 1.22,-4.29 2.08,-4.26 6.29,-1.83 8.45,4.89 16.79,10.18 25.75,13.93 34.92,14.6 68.69,10.33 100.84,-8.33 9.71,-5.63 18.31,-13.16 27.42,-19.82 7.23,-8.19 14.46,-16.38 22.18,-25.14 -4.84,-4.37 -8.83,-7.98 -12.83,-11.6 9.47,-7.79 22.24,-7.88 30.14,1.04 6.09,6.88 10.56,15.21 15.67,22.95 1.91,2.89 3.58,5.92 5.49,9.11 6.86,-3.49 13.16,-7.18 19.85,-9.98 7.17,-3 14.55,-5.71 22.08,-7.57 17.35,-4.28 28.75,4.41 29.55,22.36 0.42,9.44 0.07,18.92 0.07,29.74 2.17,-1.88 3.37,-3.09 4.73,-4.08 9.12,-6.61 17.74,-14.16 27.55,-19.53 15.91,-8.71 31.12,-4.9 42.8,8.99 7.82,9.31 12.86,20.15 16.99,31.42 1.67,4.56 3.91,6.39 9.24,6.56 16.46,0.53 32.82,2.5 48.27,8.82 10.41,4.26 19.42,10.41 21.62,22.23 1.2,6.41 0.5,13.22 0.27,19.84 -0.12,3.46 -0.57,7.09 -1.82,10.28 -2.22,5.66 0.6,7.86 4.84,10.91 10.62,7.64 21.63,15.14 30.68,24.45 15.15,15.58 15.97,30.59 4.89,49.42 -4.21,7.14 -8.75,14.09 -13.31,21.4 4.86,2.98 10.08,5.35 14.26,8.93 6.77,5.8 13.93,11.63 19,18.81 8.66,12.27 8.49,25.92 1.54,39.2 -5.53,10.58 -13.61,18.81 -24.18,24.5 -1.02,0.55 -2.02,1.13 -3.02,1.72 -0.13,0.07 -0.18,0.27 -0.41,0.66 3.04,3.07 6.43,5.95 9.16,9.36 6.39,8.02 13.49,15.73 18.43,24.6 7.45,13.4 4.04,25.98 -8.01,35.37 -7.59,5.91 -16.26,9.6 -25.74,11.37 -1.44,0.27 -2.85,0.76 -3.9,1.05 3.02,13.05 5.98,25.88 8.95,38.7 -0.5,0.27 -0.99,0.55 -1.49,0.82 -18.03,-8.55 -33.42,-21.23 -49.77,-32.43 -7.85,-4.25 -15.71,-8.51 -23.53,-12.75 11.56,-18.23 19.26,-37.48 6.21,-58.22 -7.83,-12.45 -20.24,-19.26 -34.59,-22.16 36.72,18.39 44.15,59.1 14.23,80.64 3.71,11.77 7.4,23.63 7.05,36.29 -0.32,11.52 -5.5,19.65 -16.26,23.92 -4.15,1.65 -8.44,3.16 -12.8,3.95 -3.26,0.59 -4.18,2.05 -4.95,5.02 -2.59,9.91 -4.4,20.28 -8.72,29.43 -9.52,20.17 -25.58,26.16 -46.73,18.66 -6.21,-2.21 -12.09,-5.35 -18.85,-8.39 5.84,10.59 13.88,17.5 25.38,20.24 25.54,1.91 43.93,-10.92 51.78,-36.15 1.22,-3.93 2.41,-7.86 3.62,-11.8 0.2,-1.48 0.49,-2.95 0.59,-4.44 0.2,-3.16 1.31,-5.41 4.88,-5.71 0.97,-0.08 2.05,-0.33 2.83,-0.86 9.74,-6.62 19.06,-3.02 28.38,1.07 1.34,0.59 2.68,1.18 4.02,1.78 10.67,4.73 21.34,9.47 32.01,14.2 -0.27,0.76 -0.54,1.56 -0.81,2.36 z m 110.89,16.1 c -2.61,9.59 -7.46,17.46 -15.89,22.7 -7.51,4.67 -15.86,6.15 -23.57,1.17 -8.31,-5.37 -16.28,-11.42 -23.71,-17.96 -22.47,-19.78 -47.53,-35.2 -75.34,-46.21 -5.38,-2.13 -10.74,-4.32 -16.63,-6.69 10.31,-12.41 8.35,-26.81 6.82,-41.14 0.48,-0.27 0.96,-0.54 1.44,-0.81 2.41,2.2 5.06,4.19 7.19,6.64 16.53,19.05 36.06,33.67 61.29,38.33 16.13,2.98 32.41,5.04 47.86,10.85 10.04,3.77 19.35,8.68 26.46,17.12 4.01,4.78 5.81,9.62 4.08,16 z M 298.84,677.47 c -0.02,0.02 -0.03,0.04 -0.05,0.06 0.03,-0.01 0.06,-0.02 0.08,-0.02 z m 569.38,211.64 c 11.78,-7.91 19.84,-18.52 17.15,-33.4 -1.43,-7.94 -5.49,-15.5 -8.98,-22.94 -1.49,-3.18 -2.21,-5.48 -0.9,-9.09 4.51,-12.43 7.22,-25.19 5.48,-38.63 -3.21,-24.76 -24.22,-38.1 -43.82,-39.13 1.16,0.72 2.42,1.19 3.67,1.71 14.83,6.13 26.34,15.69 30.75,31.71 3.36,12.21 2.45,24.73 -2.22,36.29 -3.84,9.49 -4.66,17.15 2.37,25.69 4.81,5.84 6.88,13.65 5.79,21.64 -1.32,9.66 -7.67,15.99 -15.6,20.16 -6.01,3.16 -8,7.14 -7.06,13.35 0.12,0.81 0.07,1.67 0.02,2.5 -0.65,10.94 -0.72,21.95 -2.17,32.78 -1.23,9.14 -7.46,14.86 -16.25,17.78 -11.82,3.92 -23.95,3.41 -36.14,3.28 13.37,4.44 26.82,5.52 40.49,1.16 12.31,-3.93 19.93,-11.89 21.01,-24.96 0.85,-10.27 1.3,-20.61 1.14,-30.91 -0.1,-4.65 1.78,-6.65 5.27,-8.99 z M 727.57,687.7 c -4.26,-3.5 -9.55,-6.07 -14.75,-8.03 -6.3,-2.37 -13.01,-3.64 -19.63,-5.4 -0.5,-19.26 -2.76,-38.15 -24.39,-45.57 -16.22,-5.57 -30.52,-0.21 -43.74,12.32 3,-0.63 4.71,-0.98 6.42,-1.35 6.94,-1.52 13.82,-3.72 20.84,-4.44 17.78,-1.81 28.53,6.6 31.39,24.42 1.14,7.15 1.07,14.49 1.57,21.99 1.48,0.28 3.1,0.62 4.72,0.9 11.3,2 22.58,4.01 32.14,11.08 6.08,4.5 8.98,10.71 7.1,17.87 -1.73,6.55 -5.1,12.67 -7.75,18.98 0.75,0.34 1.5,0.67 2.25,1.01 1.85,-2.24 3.64,-4.54 5.55,-6.72 11.1,-12.63 12.53,-25.34 -1.72,-37.06 z m -428.31,-10.62 -0.33,0.36 c 0.09,-0.03 0.18,-0.06 0.25,-0.11 0.06,-0.05 0.06,-0.17 0.08,-0.25 z m -0.42,0.39 c 0,0 0.03,0.03 0.03,0.03 0.02,-0.02 0.04,-0.05 0.06,-0.07 -0.03,0.02 -0.06,0.03 -0.09,0.04 z M 340.5,481.9 c 6.72,0.12 12.03,-4.82 12.09,-11.25 0.05,-5.45 -5.64,-11.12 -11.28,-11.24 -6.01,-0.13 -11.56,5.25 -11.59,11.24 -0.02,6.3 4.62,11.15 10.78,11.25 z m 113.4,58.55 c -6.02,-0.08 -11.08,4.8 -11.25,10.88 -0.19,6.59 4.46,11.81 10.71,12.01 6.19,0.19 11.37,-4.85 11.54,-11.25 0.17,-6.35 -4.75,-11.56 -11,-11.64 z"
     id="path24" /></g>
</svg>
